<svg width="50" height="50" viewBox="0 0 50 50" fill="none" xmlns="http://www.w3.org/2000/svg">
<rect width="50" height="50" rx="10" fill="white"/>
<path d="M25.5 7C15.84 7 8 14.84 8 24.5C8 34.16 15.84 42 25.5 42H34.25V38.5H25.5C17.905 38.5 11.5 32.095 11.5 24.5C11.5 16.905 17.905 10.5 25.5 10.5C33.095 10.5 39.5 16.905 39.5 24.5V27.0025C39.5 28.385 38.2575 29.75 36.875 29.75C35.4925 29.75 34.25 28.385 34.25 27.0025V24.5C34.25 19.67 30.33 15.75 25.5 15.75C20.67 15.75 16.75 19.67 16.75 24.5C16.75 29.33 20.67 33.25 25.5 33.25C27.915 33.25 30.12 32.27 31.695 30.6775C32.8325 32.235 34.7925 33.25 36.875 33.25C40.3225 33.25 43 30.45 43 27.0025V24.5C43 14.84 35.16 7 25.5 7ZM25.5 29.75C22.595 29.75 20.25 27.405 20.25 24.5C20.25 21.595 22.595 19.25 25.5 19.25C28.405 19.25 30.75 21.595 30.75 24.5C30.75 27.405 28.405 29.75 25.5 29.75Z" fill="#434343"/>
</svg>
